<svg width="34" height="34" viewBox="0 0 34 34" fill="none" xmlns="http://www.w3.org/2000/svg">
<path d="M17 19.8333V22.6666C14.7456 22.6666 12.5836 23.5622 10.9896 25.1562C9.39552 26.7503 8.49999 28.9123 8.49999 31.1666H5.66666C5.66666 28.1608 6.8607 25.2782 8.98611 23.1527C11.1115 21.0273 13.9942 19.8333 17 19.8333ZM17 18.4166C12.3037 18.4166 8.49999 14.6129 8.49999 9.91663C8.49999 5.22038 12.3037 1.41663 17 1.41663C21.6962 1.41663 25.5 5.22038 25.5 9.91663C25.5 14.6129 21.6962 18.4166 17 18.4166ZM17 15.5833C20.1308 15.5833 22.6667 13.0475 22.6667 9.91663C22.6667 6.78579 20.1308 4.24996 17 4.24996C13.8692 4.24996 11.3333 6.78579 11.3333 9.91663C11.3333 13.0475 13.8692 15.5833 17 15.5833ZM29.75 24.0833H31.1667V31.1666H19.8333V24.0833H21.25V22.6666C21.25 21.5395 21.6978 20.4585 22.4948 19.6614C23.2918 18.8644 24.3728 18.4166 25.5 18.4166C26.6272 18.4166 27.7082 18.8644 28.5052 19.6614C29.3022 20.4585 29.75 21.5395 29.75 22.6666V24.0833ZM26.9167 24.0833V22.6666C26.9167 22.2909 26.7674 21.9306 26.5017 21.6649C26.236 21.3992 25.8757 21.25 25.5 21.25C25.1243 21.25 24.7639 21.3992 24.4983 21.6649C24.2326 21.9306 24.0833 22.2909 24.0833 22.6666V24.0833H26.9167Z" fill="white"/>
</svg>
