<svg width="40" height="40" viewBox="0 0 40 40" fill="none" xmlns="http://www.w3.org/2000/svg">
<path d="M12.2567 18.5117V15.8367C12.2567 15.6783 12.2567 15.615 12.4633 15.615C14.235 15.615 15.675 15.51 16.39 15.9317C17.1067 16.3517 17.1367 16.9317 17.1483 17.105C17.16 17.2783 17.155 17.5267 16.8217 18.1317C16.4883 18.7367 14.9967 18.7483 13.92 18.7483H12.495C12.32 18.7483 12.2567 18.685 12.2567 18.5117ZM17.1667 21.315C17.3317 21.5257 17.4496 21.7695 17.5122 22.0297C17.5747 22.29 17.5806 22.5606 17.5294 22.8233C17.4782 23.0861 17.3711 23.3347 17.2153 23.5524C17.0596 23.7701 16.8588 23.9517 16.6267 24.085C16.2857 24.2285 15.9199 24.3038 15.55 24.3067H12.4783C12.32 24.3067 12.2567 24.3067 12.2567 24.1017V20.935C12.2567 20.7767 12.2567 20.7133 12.4633 20.7133H14.505C15.7717 20.7133 16.5633 20.6033 17.1667 21.315Z" fill="white"/>
<path d="M28.315 19.8483C28.2301 19.6481 28.1012 19.4695 27.9379 19.3258C27.7746 19.1821 27.5811 19.077 27.3717 19.0183C26.9531 18.9039 26.515 18.8797 26.0863 18.9472C25.6576 19.0147 25.2482 19.1725 24.885 19.41C24.5231 19.7757 24.2892 20.2487 24.2183 20.7583C24.2183 20.9366 24.2183 20.97 24.43 20.97H28.38C28.575 20.97 28.575 20.97 28.5583 20.725C28.5397 20.4187 28.4578 20.1199 28.315 19.8483ZM28.315 19.8483C28.2301 19.6481 28.0995 19.4695 27.9362 19.3258C27.7729 19.1821 27.5811 19.077 27.3717 19.0183C26.9531 18.9039 26.515 18.8797 26.0863 18.9472C25.6576 19.0147 25.2482 19.1725 24.885 19.41C24.5231 19.7757 24.2875 20.2487 24.2167 20.7583C24.2167 20.9366 24.2167 20.97 24.4283 20.97H28.38C28.575 20.97 28.575 20.97 28.5583 20.725C28.5397 20.4187 28.4545 20.1199 28.3117 19.8483M30.1667 4.16663H10.6667C8.94276 4.16663 7.28946 4.85145 6.07048 6.07043C4.85149 7.28942 4.16667 8.94272 4.16667 10.6666V30.1666C4.16667 31.8905 4.85149 33.5438 6.07048 34.7628C7.28946 35.9818 8.94276 36.6666 10.6667 36.6666H30.1667C31.8906 36.6666 33.5439 35.9818 34.7629 34.7628C35.9818 33.5438 36.6667 31.8905 36.6667 30.1666V10.6666C36.6667 8.94272 35.9818 7.28942 34.7629 6.07043C33.5439 4.85145 31.8906 4.16663 30.1667 4.16663ZM23.7967 14.5166C23.7967 14.3883 23.7967 14.3383 23.9433 14.3383H29.2083V15.705C29.2083 15.705 29.2133 15.8016 29.1267 15.8016H24.025C23.7967 15.8016 23.7967 15.8016 23.7967 15.575V14.5166ZM18.9217 26.4616C16.9217 27.55 13.56 27.1116 9.57834 27.1116V13.64H15.9317C17.5567 13.64 19.49 14.0466 20.01 15.7683C20.28 16.5203 20.2636 17.3453 19.9638 18.086C19.6641 18.8266 19.102 19.4308 18.385 19.7833C19.0459 20.0279 19.6229 20.4567 20.0478 21.019C20.4726 21.5812 20.7274 22.2535 20.7821 22.9561C20.8369 23.6587 20.6891 24.3622 20.3565 24.9835C20.0238 25.6047 19.5201 26.1177 18.905 26.4616H18.9217ZM31.0283 22.6266H24.5283C24.35 22.6266 24.1867 22.7233 24.2183 22.9516C24.4133 23.91 24.8517 24.9183 25.845 25.065C26.3695 25.2211 26.9312 25.1971 27.4405 24.9968C27.9497 24.7965 28.3773 24.4315 28.655 23.96C28.655 23.96 28.7367 23.8616 28.785 23.8616H30.8983C30.8983 23.8616 31.0283 23.8616 30.995 23.975C30.7721 24.606 30.4423 25.1941 30.02 25.7133C29.4552 26.2528 28.7736 26.6549 28.0282 26.8884C27.2828 27.1219 26.4937 27.1804 25.722 27.0595C24.9503 26.9386 24.2169 26.6415 23.5786 26.1912C22.9403 25.741 22.4144 25.1497 22.0417 24.4633C21.8124 24.0056 21.6695 23.5095 21.62 23C21.3301 21.7193 21.5517 20.376 22.2375 19.2563C22.9233 18.1365 24.0191 17.3287 25.2917 17.005C28.98 16.2083 31.32 18.7433 31.32 22.3183C31.3255 22.3601 31.3213 22.4026 31.3077 22.4425C31.2941 22.4824 31.2716 22.5186 31.2418 22.5484C31.212 22.5782 31.1757 22.6007 31.1358 22.6143C31.0959 22.6279 31.0535 22.6321 31.0117 22.6266H31.0283ZM27.3883 19.0183C26.9701 18.9023 26.5317 18.8784 26.1033 18.9483C25.675 19.015 25.2917 19.0966 24.9017 19.41C24.5117 19.7216 24.305 20.2483 24.235 20.7583C24.235 20.9366 24.235 20.97 24.4467 20.97H28.38C28.575 20.97 28.575 20.97 28.5583 20.725C28.5397 20.4187 28.4578 20.1199 28.315 19.8483C28.2301 19.6481 28.1012 19.4695 27.9379 19.3258C27.7746 19.1821 27.5811 19.077 27.3717 19.0183H27.3883Z" fill="white"/>
</svg>
